<?xml version="1.0" encoding="UTF-8"?>
<svg id="Layer_2" data-name="Layer 2" xmlns="http://www.w3.org/2000/svg" viewBox="0 0 99 87">
  <defs>
    <style>
      .cls-1 {
        fill: #ad6c2f;
        stroke-width: 0px;
      }
    </style>
  </defs>
  <g id="Layer_3" data-name="Layer 3">
    <path class="cls-1" d="m88.85,29.55c.74-1.7,1.15-3.58,1.15-5.55,0-6.5-4.45-11.97-10.46-13.54-1.57-6.01-7.04-10.46-13.54-10.46-5.96,0-11.06,3.74-13.07,9-.6,1.55-.93,3.24-.93,5v60c0,.68.05,1.34.15,2,.97,6.22,6.36,11,12.85,11s11.35-4.32,12.67-10.1c6.94-.83,12.33-6.75,12.33-13.9,0-1.97-.41-3.84-1.15-5.54-.07-.16-.14-.31-.21-.46-.07-.14-.14-.29-.22-.43.14-.03.29-.07.43-.11.39-.11.77-.24,1.15-.39,5.26-2.01,9-7.12,9-13.07,0-6.38-4.3-11.78-10.15-13.45Zm-10.85,44.27v-16.82h7c.07,0,.14,0,.21-.01h0c.21.33.4.65.57.99.78,1.5,1.22,3.21,1.22,5.02,0,5.39-3.88,9.87-9,10.82Zm11.57-20.82c-.72.34-1.47.59-2.26.76-.23.05-.47.09-.71.12-.52.08-1.06.12-1.6.12h-7v-10h11v-3h-14v13h-12v19h3v-16h9v17c0,1.02-.15,2.01-.44,2.93-1.25,4.09-5.07,7.07-9.56,7.07-5.51,0-10-4.49-10-10V14c0-6.07,4.93-11,11-11,4.66,0,8.65,2.91,10.25,7.01.3.76.51,1.56.63,2.39v5.6h-9.88v-9h-3v12h16v-7c0-.08,0-.17-.01-.25h.01s.08.03.12.05c4.03,1.63,6.88,5.59,6.88,10.2,0,1.8-.44,3.5-1.21,5,0,.01,0,.02-.02.03-.19-.01-.37-.02-.56-.02-.07-.01-.14-.01-.21-.01h-21v15h3v-12h18c.55,0,1.08.04,1.61.12.23.03.46.07.69.12,4.97,1.05,8.7,5.47,8.7,10.76,0,4.44-2.64,8.27-6.43,10Z"/>
    <path class="cls-1" d="m46.85,11c-.97-6.22-6.36-11-12.85-11s-11.35,4.32-12.67,10.1c-6.94.83-12.33,6.75-12.33,13.9,0,1.97.41,3.84,1.15,5.54.07.16.14.31.21.46.07.14.14.29.22.43-.14.03-.29.07-.43.11-.39.11-.77.24-1.15.39-5.26,2.01-9,7.12-9,13.07,0,6.38,4.3,11.78,10.15,13.45-.74,1.7-1.15,3.58-1.15,5.55,0,6.5,4.45,11.97,10.46,13.54,1.57,6.01,7.04,10.46,13.54,10.46,5.96,0,11.06-3.74,13.07-9,.6-1.55.93-3.24.93-5V13c0-.68-.05-1.34-.15-2Zm-25.85,2.18v16.82h-7c-.07,0-.14,0-.21.01h0c-.21-.33-.4-.65-.57-.99-.78-1.5-1.22-3.21-1.22-5.02,0-5.39,3.88-9.87,9-10.82Zm23,59.82c0,6.07-4.93,11-11,11-4.66,0-8.65-2.91-10.25-7.01-.3-.76-.51-1.56-.63-2.39v-5.6h9.88v9h3v-12h-16v7c0,.08,0,.17.01.25h-.01s-.08-.03-.12-.05c-4.03-1.63-6.88-5.59-6.88-10.2,0-1.8.44-3.5,1.21-5,0-.01,0-.02.02-.03.19.01.37.02.56.02.07.01.14.01.21.01h21v-15h-3v12H14c-.55,0-1.08-.04-1.61-.12-.23-.03-.46-.07-.69-.12-4.97-1.05-8.7-5.47-8.7-10.76,0-4.44,2.64-8.27,6.43-10,.72-.34,1.47-.59,2.26-.76.23-.05.47-.09.71-.12.52-.08,1.06-.12,1.6-.12h7v10h-11v3h14v-13h12V14h-3v16h-9V13c0-1.02.15-2.01.44-2.93,1.25-4.09,5.07-7.07,9.56-7.07,5.51,0,10,4.49,10,10v60Z"/>
  </g>
</svg>